<svg width="99" height="99" viewBox="0 0 99 99" fill="none" xmlns="http://www.w3.org/2000/svg">
<g clip-path="url(#clip0)">
<path d="M82.8213 61.7368C86.9581 55.4541 89.3698 47.9395 89.3698 39.8706C89.3698 17.8857 71.4833 0 49.4985 0C27.5137 0 9.62794 17.8857 9.62794 39.8706C9.62794 47.9395 12.0396 55.4541 16.1757 61.7368L0.580078 84.4814L18.4258 81.1543L21.7537 99L36.4611 77.5499C40.5488 78.9684 44.9349 79.7411 49.4985 79.7411C54.0628 79.7411 58.4489 78.9684 62.5359 77.5499L77.244 99L80.5712 81.1543L98.4169 84.4814L82.8213 61.7368ZM24.9071 84.0826L23.0921 74.3482L13.3584 76.164L19.9266 66.5844C23.0725 70.0633 26.8226 72.9849 31.0085 75.1858L24.9071 84.0826ZM15.4627 39.8706C15.4627 21.1034 30.7313 5.83477 49.4985 5.83477C68.2664 5.83477 83.535 21.1034 83.535 39.8706C83.535 58.6385 68.2664 73.9071 49.4985 73.9071C30.7313 73.9071 15.4627 58.6385 15.4627 39.8706ZM75.9049 74.3482L74.0899 84.0826L67.9892 75.1858C72.1752 72.9849 75.9253 70.0633 79.0711 66.5844L85.6393 76.1632L75.9049 74.3482Z" fill="#ED1A3D"/>
<path d="M42.391 48.6269L32.9043 39.141L28.7788 43.2665L42.391 56.8787L70.2189 29.0515L66.0934 24.926L42.391 48.6269Z" fill="#ED1A3D"/>
</g>
<defs>
<clipPath id="clip0">
<rect width="99" height="99" fill="white"/>
</clipPath>
</defs>
</svg>
