<svg width="99" height="99" viewBox="0 0 99 99" fill="none" xmlns="http://www.w3.org/2000/svg">
<path d="M45.3401 19.5118C50.7226 19.5118 55.0955 15.1439 55.0955 9.75602C55.0955 4.36648 50.7226 0 45.3401 0C39.9513 0 35.582 4.36648 35.582 9.75602C35.582 15.1439 39.9513 19.5118 45.3401 19.5118Z" fill="#ED1A3D"/>
<path d="M60.4157 74.7947C57.8233 83.7961 49.525 90.4067 39.6999 90.4067C27.802 90.4067 18.1263 80.7305 18.1263 68.8363C18.1263 60.0317 23.4379 52.4535 31.0183 49.1049V39.9602C18.6044 43.6993 9.53418 55.2229 9.53418 68.8363C9.53418 85.4677 23.0663 99 39.6997 99C51.8214 99 62.2695 91.7958 67.0601 81.459L63.6541 74.7671C62.6981 74.7749 61.5905 74.785 60.4157 74.7947Z" fill="#ED1A3D"/>
<path d="M88.8388 86.3753L75.7711 60.6839C74.7958 58.7616 72.8241 57.5516 70.6674 57.5516H53.9305V53.7351H68.3349C69.7733 53.7351 70.9823 52.9833 71.7633 51.9002C72.2708 51.1947 72.6318 50.3751 72.6318 49.438C72.6318 47.0657 70.7102 45.1415 68.3349 45.1415H59.6569H53.9305V32.1968C53.9305 28.6367 51.2907 23.6035 45.3402 23.6035C40.5944 23.6035 36.7471 27.4514 36.7471 32.1968V60.2426C36.7471 65.0838 40.6717 69.0084 45.513 69.0084H61.2623H67.1551L78.63 91.5697C79.6384 93.5568 81.6507 94.7034 83.739 94.7034C84.6144 94.7034 85.502 94.5034 86.3315 94.0788C89.1555 92.6464 90.2772 89.1954 88.8388 86.3753Z" fill="#ED1A3D"/>
</svg>
