<svg width="109" height="109" viewBox="0 0 109 109" fill="none" xmlns="http://www.w3.org/2000/svg">
<path d="M82.3225 64.8044C74.7464 64.8044 68.583 70.9678 68.583 78.544C68.583 86.1201 74.7464 92.2835 82.3225 92.2835C89.9 92.2835 96.0621 86.1201 96.0621 78.544C96.0621 70.9678 89.8987 64.8044 82.3225 64.8044ZM82.3225 85.4137C78.5339 85.4137 75.4528 82.3326 75.4528 78.544C75.4528 74.7554 78.5339 71.6742 82.3225 71.6742C86.1111 71.6742 89.1923 74.7554 89.1923 78.544C89.1923 82.3328 86.1111 85.4137 82.3225 85.4137Z" fill="#ED1A3D"/>
<path d="M35.3792 64.8044C27.803 64.8044 21.6396 70.9678 21.6396 78.544C21.6396 86.1201 27.803 92.2835 35.3792 92.2835C42.9553 92.2835 49.1187 86.1201 49.1187 78.544C49.1187 70.9678 42.9553 64.8044 35.3792 64.8044ZM35.3792 85.4137C31.5906 85.4137 28.5094 82.3326 28.5094 78.544C28.5094 74.7554 31.5906 71.6742 35.3792 71.6742C39.1667 71.6742 42.249 74.7554 42.249 78.544C42.249 82.3328 39.1678 85.4137 35.3792 85.4137Z" fill="#ED1A3D"/>
<path d="M91.5751 25.4777C90.9911 24.3179 89.8038 23.5862 88.5054 23.5862H70.415V30.456H86.3872L95.7403 49.0592L101.88 45.9723L91.5751 25.4777Z" fill="#ED1A3D"/>
<path d="M72.0179 75.2239H46.0273V82.0937H72.0179V75.2239Z" fill="#ED1A3D"/>
<path d="M25.0746 75.2239H13.1672C11.2699 75.2239 9.73242 76.7616 9.73242 78.6587C9.73242 80.5559 11.2701 82.0934 13.1672 82.0934H25.0748C26.9721 82.0934 28.5096 80.5557 28.5096 78.6587C28.5096 76.7614 26.9719 75.2239 25.0746 75.2239Z" fill="#ED1A3D"/>
<path d="M108.279 54.2251L101.523 45.5234C100.873 44.6852 99.8716 44.1952 98.8101 44.1952H73.85V20.1511C73.85 18.2538 72.3123 16.7163 70.4152 16.7163H13.1672C11.2699 16.7163 9.73242 18.254 9.73242 20.1511C9.73242 22.0482 11.2701 23.5859 13.1672 23.5859H66.9802V47.6299C66.9802 49.5272 68.5179 51.0647 70.415 51.0647H97.1281L102.13 57.5085V75.2233H92.6271C90.7299 75.2233 89.1924 76.761 89.1924 78.6581C89.1924 80.5554 90.7301 82.0929 92.6271 82.0929H105.565C107.462 82.0929 109 80.5552 109 78.6581V56.3318C109 55.5693 108.746 54.8273 108.279 54.2251Z" fill="#ED1A3D"/>
<path d="M24.8457 57.8206H9.04513C7.14785 57.8206 5.61035 59.3583 5.61035 61.2553C5.61035 63.1526 7.14806 64.6901 9.04513 64.6901H24.8454C26.7427 64.6901 28.2802 63.1524 28.2802 61.2553C28.2804 59.3583 26.7427 57.8206 24.8457 57.8206Z" fill="#ED1A3D"/>
<path d="M32.7458 44.3098H3.43478C1.53771 44.3098 0 45.8475 0 47.7448C0 49.6421 1.53771 51.1796 3.43478 51.1796H32.7458C34.6431 51.1796 36.1805 49.6419 36.1805 47.7448C36.1805 45.8477 34.6431 44.3098 32.7458 44.3098Z" fill="#ED1A3D"/>
<path d="M38.3561 30.7993H9.04513C7.14785 30.7993 5.61035 32.337 5.61035 34.2341C5.61035 36.1314 7.14806 37.6689 9.04513 37.6689H38.3561C40.2534 37.6689 41.7909 36.1312 41.7909 34.2341C41.7911 32.337 40.2534 30.7993 38.3561 30.7993Z" fill="#ED1A3D"/>
</svg>
