<svg width="105" height="105" viewBox="0 0 105 105" fill="none" xmlns="http://www.w3.org/2000/svg">
<path d="M98.7326 58.5621C98.7326 53.4636 94.5847 49.3155 89.486 49.3155H64.8432C66.8454 45.7553 67.9108 35.5582 67.9108 31.3621C67.9108 24.2666 62.138 18.4939 55.0425 18.4939H52.5C50.7978 18.4939 49.4179 19.8739 49.4179 21.576C49.4179 28.7033 46.6425 41.5679 41.6029 46.6072L41.4073 46.8029C37.9251 50.2851 34.9992 51.5377 30.9249 53.575V52.3976C30.9249 50.6955 29.545 49.3155 27.8428 49.3155H9.3497C7.64755 49.3155 6.26758 50.6955 6.26758 52.3976V101.918C6.26758 103.62 7.64755 105 9.3497 105H27.8426C29.5448 105 30.9247 103.62 30.9247 101.918V100.03C37.0354 102.067 44.6566 105 56.3392 105H77.1573C82.2558 105 86.4039 100.852 86.4039 95.7534C86.4039 94.551 86.1732 93.4016 85.7538 92.3468C89.6761 91.2763 92.5683 87.6819 92.5683 83.4247C92.5683 82.2223 92.3376 81.0729 91.9182 80.0182C95.8406 78.9476 98.7328 75.3532 98.7328 71.096C98.7328 68.7629 97.8807 66.5339 96.3252 64.7786C97.8198 63.1355 98.7326 60.9531 98.7326 58.5621ZM24.7605 58.5621V95.7536V98.8357H12.4318V55.4799H24.7605V58.5621ZM89.486 74.1784C87.1621 74.1784 72.8925 74.1784 70.9931 74.1784C69.2909 74.1784 67.911 75.5583 67.911 77.2605C67.911 78.9626 69.2909 80.3426 70.9931 80.3426H83.3218C85.0213 80.3426 86.4039 81.7252 86.4039 83.4247C86.4039 85.1242 85.0213 86.5068 83.3218 86.5068C82.0152 86.5068 72.2996 86.5068 70.9931 86.5068C69.2909 86.5068 67.911 87.8868 67.911 89.5889C67.911 91.2911 69.2909 92.6711 70.9931 92.6711H77.1573C78.8568 92.6711 80.2394 94.0537 80.2394 95.7532C80.2394 97.4527 78.8568 98.8353 77.1573 98.8353H56.339C45.5825 98.8353 38.9099 96.1933 30.9247 93.5318V60.4668C37.8158 57.0213 41.2363 55.6904 45.9617 50.9662C51.4305 45.4974 54.7335 32.2756 55.4394 24.6698C58.9521 24.8757 61.7465 27.7987 61.7465 31.3619C61.7465 36.1532 59.8805 46.8224 56.4851 50.218C55.6036 51.0995 55.3399 52.4253 55.8169 53.577C56.2939 54.7287 57.4177 55.4797 58.6644 55.4797H89.4858C91.1853 55.4797 92.5679 56.8624 92.5679 58.5619C92.5679 60.2613 91.1855 61.6442 89.486 61.6442H70.9931C69.2909 61.6442 67.911 63.0242 67.911 64.7263C67.911 66.4285 69.2909 67.8084 70.9931 67.8084H89.486C91.1279 67.8084 92.5681 69.3449 92.5681 71.096C92.5681 72.7957 91.1855 74.1784 89.486 74.1784Z" fill="#ED1A3D"/>
</svg>
