<svg width="55" height="55" viewBox="0 0 55 55" fill="none" xmlns="http://www.w3.org/2000/svg">
<g clip-path="url(#clip0)">
<path d="M44.2922 40.6038H25.0952C22.3238 40.6038 19.357 38.584 18.3418 36.0048L10.5839 16.3126C10.1743 15.2725 8.73088 14.29 7.61311 14.29H2.03328C0.910441 14.2905 0 13.3801 0 12.2573C0 11.1344 0.910441 10.224 2.03328 10.224H7.61368C10.3856 10.224 13.3518 12.2437 14.3671 14.823L22.125 34.5152C22.5345 35.5552 23.978 36.5378 25.0952 36.5378H44.2922C45.3823 36.5378 46.757 35.5659 47.1204 34.5388L50.8602 23.9707C50.965 23.675 50.9385 23.4947 50.9098 23.4535C50.8805 23.4124 50.7193 23.3279 50.4055 23.3279H23.9295C22.8067 23.3279 21.8962 22.4175 21.8962 21.2946C21.8962 20.1718 22.8067 19.2614 23.9295 19.2614H50.4055C52.0073 19.2614 53.4011 19.934 54.2304 21.1065C55.0592 22.2789 55.2282 23.8169 54.6935 25.3268L50.9537 35.8949C50.0196 38.535 47.0934 40.6038 44.2922 40.6038Z" fill="#54779E"/>
<path d="M19.869 52.1094C22.3644 52.1094 24.3874 50.0864 24.3874 47.5909C24.3874 45.0955 22.3644 43.0725 19.869 43.0725C17.3735 43.0725 15.3506 45.0955 15.3506 47.5909C15.3506 50.0864 17.3735 52.1094 19.869 52.1094Z" fill="#54779E"/>
<path d="M48.8397 52.1094C51.3351 52.1094 53.3581 50.0864 53.3581 47.5909C53.3581 45.0955 51.3351 43.0725 48.8397 43.0725C46.3442 43.0725 44.3213 45.0955 44.3213 47.5909C44.3213 50.0864 46.3442 52.1094 48.8397 52.1094Z" fill="#54779E"/>
<path d="M44.2202 28.2035H26.261C25.6993 28.2035 25.2446 27.7483 25.2446 27.1872C25.2446 26.6254 25.6999 26.1708 26.261 26.1708H44.2202C44.7819 26.1708 45.2366 26.626 45.2366 27.1872C45.2366 27.7483 44.7819 28.2035 44.2202 28.2035Z" fill="#54779E"/>
<path d="M42.8466 33.2864H28.093C27.5319 33.2864 27.0767 32.8312 27.0767 32.2701C27.0767 31.7084 27.5319 31.2537 28.093 31.2537H42.8471C43.4088 31.2537 43.8635 31.7089 43.8635 32.2701C43.8629 32.8312 43.4083 33.2864 42.8466 33.2864Z" fill="#54779E"/>
</g>
<defs>
<clipPath id="clip0">
<rect width="55" height="55" fill="white"/>
</clipPath>
</defs>
</svg>
