<svg width="29" height="29" viewBox="0 0 29 29" fill="none" xmlns="http://www.w3.org/2000/svg">
<g clip-path="url(#clip0)">
<path d="M14.5049 7.0542C10.3929 7.0542 7.06396 10.3868 7.06396 14.4951C7.06396 18.6071 10.3965 21.936 14.5049 21.936C18.6168 21.936 21.9458 18.6034 21.9458 14.4951C21.9458 10.3832 18.6132 7.0542 14.5049 7.0542ZM14.5049 19.3248C11.8357 19.3248 9.67517 17.1631 9.67517 14.4951C9.67517 11.8271 11.8369 9.66541 14.5049 9.66541C17.1729 9.66541 19.3346 11.8271 19.3346 14.4951C19.3358 17.1631 17.1741 19.3248 14.5049 19.3248Z" fill="white"/>
<path d="M20.4781 0.0930453C17.8101 -0.031413 11.2018 -0.0253713 8.53134 0.0930453C6.18476 0.203004 4.11488 0.769712 2.44617 2.43842C-0.34266 5.22725 0.013798 8.98517 0.013798 14.4964C0.013798 20.1369 -0.300369 23.8078 2.44617 26.5543C5.24588 29.3528 9.05817 28.9867 14.5041 28.9867C20.0915 28.9867 22.02 28.9903 23.9956 28.2255C26.6817 27.1827 28.7093 24.7817 28.9075 20.4692C29.0331 17.8 29.0259 11.1928 28.9075 8.52238C28.6682 3.43167 25.9362 0.344379 20.4781 0.0930453ZM24.7013 24.7092C22.873 26.5374 20.3368 26.3743 14.4691 26.3743C8.42742 26.3743 6.00471 26.4637 4.23692 24.6911C2.20088 22.6647 2.56942 19.4107 2.56942 14.477C2.56942 7.801 1.8843 2.99305 8.58451 2.64988C10.1239 2.5955 10.577 2.57738 14.4522 2.57738L14.5065 2.61363C20.9458 2.61363 25.9978 1.93938 26.3011 8.63838C26.37 10.1669 26.3857 10.6261 26.3857 14.4952C26.3845 20.4668 26.498 22.904 24.7013 24.7092Z" fill="white"/>
<path d="M22.2407 8.49955C23.2011 8.49955 23.9795 7.72107 23.9795 6.76076C23.9795 5.80046 23.2011 5.02197 22.2407 5.02197C21.2804 5.02197 20.502 5.80046 20.502 6.76076C20.502 7.72107 21.2804 8.49955 22.2407 8.49955Z" fill="white"/>
</g>
<defs>
<clipPath id="clip0">
<rect width="29" height="29" fill="white"/>
</clipPath>
</defs>
</svg>
