<svg width="191" height="70" viewBox="0 0 191 70" fill="none" xmlns="http://www.w3.org/2000/svg">
<path d="M121.294 36.624H123.076L122.068 41.61H119.368L119.89 39H110.998L110.476 41.61H107.776L108.784 36.624H109.162C109.942 36.6 110.614 36.024 111.178 34.896C111.754 33.768 112.276 32.214 112.744 30.234L113.662 26.4H123.346L121.294 36.624ZM115.21 30.72C114.85 32.232 114.496 33.474 114.148 34.446C113.8 35.406 113.392 36.132 112.924 36.624H118.414L119.98 28.776H115.678L115.21 30.72ZM134.726 33.438C134.726 33.882 134.672 34.374 134.564 34.914H127.148C127.244 36.234 128.078 36.894 129.65 36.894C130.142 36.894 130.61 36.816 131.054 36.66C131.51 36.504 131.906 36.282 132.242 35.994L133.412 37.848C132.872 38.28 132.254 38.604 131.558 38.82C130.862 39.036 130.13 39.144 129.362 39.144C128.366 39.144 127.49 38.97 126.734 38.622C125.99 38.262 125.414 37.752 125.006 37.092C124.61 36.432 124.412 35.67 124.412 34.806C124.412 33.738 124.652 32.778 125.132 31.926C125.624 31.062 126.302 30.39 127.166 29.91C128.03 29.418 129.014 29.172 130.118 29.172C131.054 29.172 131.864 29.346 132.548 29.694C133.244 30.042 133.778 30.54 134.15 31.188C134.534 31.836 134.726 32.586 134.726 33.438ZM129.992 31.278C129.332 31.278 128.774 31.458 128.318 31.818C127.862 32.166 127.538 32.652 127.346 33.276H132.152C132.152 32.652 131.954 32.166 131.558 31.818C131.174 31.458 130.652 31.278 129.992 31.278ZM144.865 31.62H141.571L140.131 39H137.323L138.763 31.62H135.523L135.991 29.316H145.333L144.865 31.62ZM149.594 39.144C148.598 39.144 147.728 38.964 146.984 38.604C146.24 38.244 145.664 37.74 145.256 37.092C144.86 36.432 144.662 35.67 144.662 34.806C144.662 33.738 144.914 32.778 145.418 31.926C145.922 31.074 146.624 30.402 147.524 29.91C148.424 29.418 149.438 29.172 150.566 29.172C151.598 29.172 152.486 29.388 153.23 29.82C153.986 30.24 154.55 30.84 154.922 31.62L152.546 32.808C152.126 31.932 151.406 31.494 150.386 31.494C149.834 31.494 149.336 31.632 148.892 31.908C148.46 32.172 148.118 32.544 147.866 33.024C147.626 33.504 147.506 34.05 147.506 34.662C147.506 35.322 147.704 35.85 148.1 36.246C148.496 36.63 149.048 36.822 149.756 36.822C150.788 36.822 151.58 36.39 152.132 35.526L154.202 36.822C153.734 37.554 153.092 38.124 152.276 38.532C151.472 38.94 150.578 39.144 149.594 39.144ZM162.797 34.14L165.461 39H162.221L160.475 35.328H158.891L158.153 39H155.345L157.289 29.316H160.097L159.341 33.078H160.799L164.201 29.316H167.261L162.797 34.14ZM178.35 29.316L176.424 39H173.76L173.94 38.046C173.136 38.778 172.146 39.144 170.97 39.144C170.214 39.144 169.518 38.97 168.882 38.622C168.246 38.274 167.736 37.776 167.352 37.128C166.98 36.468 166.794 35.694 166.794 34.806C166.794 33.738 167.028 32.778 167.496 31.926C167.976 31.062 168.624 30.39 169.44 29.91C170.256 29.418 171.156 29.172 172.14 29.172C173.628 29.172 174.678 29.658 175.29 30.63L175.542 29.316H178.35ZM171.834 36.822C172.386 36.822 172.878 36.69 173.31 36.426C173.742 36.15 174.078 35.772 174.318 35.292C174.558 34.812 174.678 34.26 174.678 33.636C174.678 32.976 174.48 32.454 174.084 32.07C173.7 31.686 173.16 31.494 172.464 31.494C171.912 31.494 171.42 31.632 170.988 31.908C170.556 32.172 170.22 32.544 169.98 33.024C169.74 33.504 169.62 34.056 169.62 34.68C169.62 35.34 169.812 35.862 170.196 36.246C170.592 36.63 171.138 36.822 171.834 36.822ZM189.676 29.316L187.75 39H185.266L185.806 36.174H183.808L181.468 39H178.354L181.288 35.76C180.748 35.52 180.34 35.19 180.064 34.77C179.788 34.338 179.65 33.834 179.65 33.258C179.65 32.022 180.118 31.056 181.054 30.36C181.99 29.664 183.286 29.316 184.942 29.316H189.676ZM184.69 31.584C183.994 31.584 183.46 31.722 183.088 31.998C182.716 32.274 182.53 32.676 182.53 33.204C182.53 33.96 183.034 34.338 184.042 34.338H186.202L186.742 31.584H184.69ZM116.092 58.216C114.832 58.216 113.74 57.988 112.816 57.532C111.892 57.076 111.184 56.434 110.692 55.606C110.2 54.778 109.954 53.824 109.954 52.744C109.954 51.316 110.278 50.032 110.926 48.892C111.586 47.74 112.504 46.834 113.68 46.174C114.868 45.514 116.224 45.184 117.748 45.184C119.008 45.184 120.1 45.412 121.024 45.868C121.948 46.324 122.656 46.966 123.148 47.794C123.64 48.622 123.886 49.576 123.886 50.656C123.886 52.084 123.556 53.374 122.896 54.526C122.248 55.666 121.33 56.566 120.142 57.226C118.966 57.886 117.616 58.216 116.092 58.216ZM116.344 55.732C117.268 55.732 118.078 55.51 118.774 55.066C119.47 54.622 120.004 54.028 120.376 53.284C120.748 52.54 120.934 51.718 120.934 50.818C120.934 49.858 120.634 49.096 120.034 48.532C119.434 47.956 118.588 47.668 117.496 47.668C116.572 47.668 115.762 47.89 115.066 48.334C114.37 48.778 113.836 49.372 113.464 50.116C113.092 50.86 112.906 51.682 112.906 52.582C112.906 53.542 113.206 54.31 113.806 54.886C114.406 55.45 115.252 55.732 116.344 55.732ZM134.255 55.696H135.641L134.759 60.088H132.149L132.563 58H125.759L125.345 60.088H122.735L123.617 55.696H123.905C124.985 55.672 125.849 54.292 126.497 51.556L127.271 48.316H135.713L134.255 55.696ZM128.963 51.97C128.723 52.99 128.501 53.788 128.297 54.364C128.093 54.928 127.817 55.372 127.469 55.696H131.447L132.455 50.62H129.287L128.963 51.97ZM147.453 52.438C147.453 52.882 147.399 53.374 147.291 53.914H139.875C139.971 55.234 140.805 55.894 142.377 55.894C142.869 55.894 143.337 55.816 143.781 55.66C144.237 55.504 144.633 55.282 144.969 54.994L146.139 56.848C145.599 57.28 144.981 57.604 144.285 57.82C143.589 58.036 142.857 58.144 142.089 58.144C141.093 58.144 140.217 57.97 139.461 57.622C138.717 57.262 138.141 56.752 137.733 56.092C137.337 55.432 137.139 54.67 137.139 53.806C137.139 52.738 137.379 51.778 137.859 50.926C138.351 50.062 139.029 49.39 139.893 48.91C140.757 48.418 141.741 48.172 142.845 48.172C143.781 48.172 144.591 48.346 145.275 48.694C145.971 49.042 146.505 49.54 146.877 50.188C147.261 50.836 147.453 51.586 147.453 52.438ZM142.719 50.278C142.059 50.278 141.501 50.458 141.045 50.818C140.589 51.166 140.265 51.652 140.073 52.276H144.879C144.879 51.652 144.681 51.166 144.285 50.818C143.901 50.458 143.379 50.278 142.719 50.278ZM160.902 53.14L163.044 58H159.786L158.4 54.274H157.104L156.348 58H153.558L154.296 54.274H153L150.21 58H146.79L150.912 52.906L149.022 48.316H151.938L153.342 52.096H154.728L155.484 48.316H158.292L157.536 52.096H158.814L161.748 48.316H164.826L160.902 53.14ZM174.439 55.696H175.825L174.943 60.088H172.333L172.747 58H165.943L165.529 60.088H162.919L163.801 55.696H164.089C165.169 55.672 166.033 54.292 166.681 51.556L167.455 48.316H175.897L174.439 55.696ZM169.147 51.97C168.907 52.99 168.685 53.788 168.481 54.364C168.277 54.928 168.001 55.372 167.653 55.696H171.631L172.639 50.62H169.471L169.147 51.97ZM188.897 48.316L186.971 58H184.307L184.487 57.046C183.683 57.778 182.693 58.144 181.517 58.144C180.761 58.144 180.065 57.97 179.429 57.622C178.793 57.274 178.283 56.776 177.899 56.128C177.527 55.468 177.341 54.694 177.341 53.806C177.341 52.738 177.575 51.778 178.043 50.926C178.523 50.062 179.171 49.39 179.987 48.91C180.803 48.418 181.703 48.172 182.687 48.172C184.175 48.172 185.225 48.658 185.837 49.63L186.089 48.316H188.897ZM182.381 55.822C182.933 55.822 183.425 55.69 183.857 55.426C184.289 55.15 184.625 54.772 184.865 54.292C185.105 53.812 185.225 53.26 185.225 52.636C185.225 51.976 185.027 51.454 184.631 51.07C184.247 50.686 183.707 50.494 183.011 50.494C182.459 50.494 181.967 50.632 181.535 50.908C181.103 51.172 180.767 51.544 180.527 52.024C180.287 52.504 180.167 53.056 180.167 53.68C180.167 54.34 180.359 54.862 180.743 55.246C181.139 55.63 181.685 55.822 182.381 55.822Z" fill="white"/>
<path d="M47.16 34.25C42.03 34.25 36.63 37.76 35.1 40.64C33.75 43.07 39.69 41.27 35.73 56.48C20.7 57.02 21.33 41.27 21.87 36.14C22.86 26.96 29.07 12.83 37.26 12.83C43.29 12.83 43.65 19.22 41.76 25.07C41.31 26.87 44.19 28.31 48.24 28.31C54.72 28.31 59.22 22.82 60.03 17.96C61.74 8.24 53.1 1.30999 38.79 1.49C19.89 1.58 4.41 17.42 1.26 35.42C-1.98 54.05 8.73 69.89 26.64 69.89C41.4 69.89 50.04 63.5 52.74 61.79C53.1 61.61 53.37 61.16 53.46 60.71C54.99 55.67 56.34 48.83 56.43 47.93C57.96 39.47 54.45 34.25 47.16 34.25ZM120.62 3.56C120.53 3.11 119.99 3.11 119.99 3.11C119.99 3.11 117.65 3.2 114.14 3.2C89.1204 2.84 81.0204 -1.03 71.4804 3.56C60.9504 8.6 63.2004 18.95 63.2904 19.04C63.2904 19.04 63.3804 19.58 63.8304 19.49C69.1404 18.5 74.7204 18.14 80.3904 18.23L73.2804 54.95C71.4804 65.48 76.9704 69.8 84.0804 69.8C89.3904 69.8 96.0504 66.02 97.5804 62.96C98.8404 60.53 92.1804 63.41 94.0704 50L98.9304 19.49C98.9304 19.49 106.76 20.57 111.08 19.31C122.24 16.16 120.62 3.56 120.62 3.56Z" fill="white"/>
</svg>
