<svg width="28" height="29" viewBox="0 0 28 29" fill="none" xmlns="http://www.w3.org/2000/svg">
<g clip-path="url(#clip0)">
<path d="M23.2342 15.742C22.7815 15.1499 22.911 14.8865 23.2342 14.3573C23.24 14.3512 26.9768 9.00313 27.3618 7.18942L27.3642 7.18821C27.5555 6.52725 27.3642 6.0415 26.439 6.0415H23.3777C22.5983 6.0415 22.239 6.45838 22.0465 6.9248C22.0465 6.9248 20.4878 10.789 18.2828 13.2939C17.5712 14.0177 17.2422 14.2497 16.8537 14.2497C16.6623 14.2497 16.3648 14.0177 16.3648 13.3568V7.18821C16.3648 6.39555 16.1467 6.0415 15.5015 6.0415H10.6878C10.199 6.0415 9.9085 6.41125 9.9085 6.75563C9.9085 7.50721 11.011 7.68 11.1253 9.79459V14.3826C11.1253 15.388 10.9492 15.5728 10.5583 15.5728C9.51767 15.5728 6.99183 11.6929 5.495 7.25225C5.19283 6.39071 4.89767 6.04271 4.1125 6.04271H1.05C0.176167 6.04271 0 6.45959 0 6.926C0 7.75009 1.04067 11.8475 4.83933 17.2609C7.371 20.956 10.9363 22.9582 14.1797 22.9582C16.1292 22.9582 16.3672 22.5135 16.3672 21.7486C16.3672 18.2179 16.191 17.8844 17.1675 17.8844C17.6202 17.8844 18.3995 18.1164 20.2195 19.8987C22.2997 22.012 22.6415 22.9582 23.8058 22.9582H26.8672C27.7398 22.9582 28.182 22.5135 27.9277 21.6363C27.3455 19.7911 23.4115 15.9958 23.2342 15.742Z" fill="white"/>
</g>
<defs>
<clipPath id="clip0">
<rect width="28" height="29" fill="white"/>
</clipPath>
</defs>
</svg>
